<svg width="790" height="804" viewBox="0 0 790 804" fill="none" xmlns="http://www.w3.org/2000/svg">
<path d="M313 104C274.5 169.867 244.505 224.054 244.505 225.521C244.505 226.989 269.958 268.331 301.04 317.745C332.368 366.914 370.058 426.847 384.988 450.575C399.917 474.548 412.888 494.118 413.623 494.118C414.357 494.118 439.076 457.914 468.69 413.392C498.059 369.116 523.023 332.667 523.757 332.667C524.736 332.667 545.05 364.223 569.035 402.874C593.02 441.769 625.081 493.629 640.5 518.581C655.919 543.532 679.659 581.694 693.12 603.465L717.001 642.372C717.369 642.972 718.025 643.334 718.729 643.326L738.643 643.094C750.146 642.849 766.543 642.116 774.865 641.137L786.572 639.986C788.052 639.841 788.861 638.188 788.068 636.93L748.188 573.621C663.506 439.567 559.001 274.202 538.687 241.667C522.534 215.981 516.905 208.642 514.702 211.089C513.233 212.556 491.451 252.43 466.243 299.642C441.259 345.743 420.284 384.537 418.824 386.88C418.774 386.96 418.79 387.009 418.699 386.982C415.42 386.023 319.151 228.663 319.151 224.054C319.151 220.629 377.4 112.75 379.358 112.505C380.093 112.505 398.693 139.414 420.72 172.438C442.502 205.218 461.348 231.637 462.327 231.148C464.774 229.68 499.038 181.734 499.038 180.021C499.038 179.288 499.038 180.021 498.941 180.312C499.036 180.029 398.674 37.5135 376.17 2.61996C375.375 1.38629 373.577 1.44655 372.787 2.68369C353.596 32.7294 371.966 3.11965 313 104Z" fill="#0C72BA"/>
<path d="M253.071 97.5833C199.227 118.132 160.557 143.083 120.175 183.935C72.9391 231.637 36.717 298.175 23.0113 363.245C11.2636 419.263 13.2216 481.887 29.1299 540.352L32.0669 551.116L36.2275 544.022C38.4302 540.108 44.3041 529.833 48.9542 521.027L57.2755 505.126L54.3386 485.556C33.5353 346.61 109.161 204.973 237.162 143.573L263.105 131.341L274.608 109.57C288.314 83.8844 288.559 84.129 253.071 97.5833Z" fill="#666867"/>
<path d="M489.249 91.7124C489.249 92.4463 495.857 103.454 503.688 116.419C518.128 139.659 518.618 140.148 538.687 150.911C610.152 188.828 667.667 257.812 693.365 336.336C703.644 367.893 707.315 388.196 708.784 421.954L710.008 453.755L724.937 479.196C739.622 504.148 739.866 504.637 742.069 497.543C743.293 493.629 744.516 468.922 744.761 442.747C745.006 389.909 742.069 370.339 728.608 327.774C703.889 250.718 653.961 183.691 587.636 138.436C564.874 123.024 532.079 105.901 507.36 96.6049C489.983 90 489.249 89.7554 489.249 91.7124Z" fill="#666867"/>
<path d="M213.177 281.785C201.185 303.801 182.829 337.314 172.55 356.395L153.705 390.887L226.394 526.409C266.532 600.774 299.572 662.175 300.061 662.664C300.796 663.887 492.43 655.57 493.654 654.347C494.143 654.102 488.759 644.562 481.661 633.554L468.935 613.495L430.755 614.962C409.707 615.696 377.645 617.164 359.534 617.898L326.494 619.121L265.308 507.328C231.778 445.927 204.367 394.312 204.856 393.089C205.346 391.621 218.317 367.159 233.736 338.782C249.155 310.406 261.637 285.699 261.637 283.987C261.637 281.296 237.652 242.156 235.939 242.156C235.449 242.156 225.17 260.013 213.177 281.785Z" fill="#0C72BA"/>
<path d="M73.4285 537.417C32.5563 612.027 -0.484118 673.427 0.00536939 673.672C1.71858 674.895 285.622 664.132 287.09 662.909C287.824 662.175 284.398 653.613 279.258 643.828L270.203 626.215H245.728C232.267 626.215 186.745 627.438 144.404 628.661C102.308 630.129 67.0652 630.863 66.5757 630.129C65.8415 629.395 87.8684 588.298 115.769 538.64C143.425 488.737 166.676 446.417 167.655 444.46C168.389 442.503 164.229 431.984 158.355 421.22L147.831 401.895L73.4285 537.417Z" fill="#0C72BA"/>
<path d="M448.621 489.47C438.097 503.169 429.286 515.645 429.286 517.358C429.286 519.07 447.887 550.137 470.648 586.341L512.01 652.145L542.847 651.411C559.735 650.922 577.112 649.944 581.517 649.21L589.349 647.987L566.588 613.25C554.106 594.169 533.058 561.879 519.842 541.82C506.625 521.516 489.983 496.075 482.64 484.823C475.543 473.815 469.18 464.763 468.69 464.763C468.445 464.763 459.39 475.771 448.621 489.47Z" fill="#0C72BA"/>
<path d="M593.265 691.285C555.329 725.288 491.696 754.642 435.405 764.672C405.057 770.054 355.618 770.054 325.27 764.672C278.279 756.355 226.883 734.828 188.948 707.675C165.732 691.058 175.232 693.5 157.732 694.5C147.232 695.5 132.232 696.911 128.496 696.911L121.232 697.5L137.062 712.567C182.095 753.175 243.77 784.242 306.425 797.941C342.647 805.769 418.028 805.769 454.25 797.941C523.268 783.019 583.23 751.462 631.2 705.229L654.451 682.723H628.753H603.055L593.265 691.285Z" fill="#666867"/>
</svg>
